<mxfile host="app.diagrams.net" agent="Mozilla/5.0 (Windows NT 10.0; Win64; x64) AppleWebKit/537.36 (KHTML, like Gecko) Chrome/128.0.0.0 Safari/537.36" version="24.7.12">
  <diagram name="PÃ¡gina-1" id="sWxnCUMk7-jcK8_irk74">
    <mxGraphModel dx="1434" dy="772" grid="1" gridSize="10" guides="1" tooltips="1" connect="1" arrows="1" fold="1" page="1" pageScale="1" pageWidth="827" pageHeight="1169" math="0" shadow="0">
      <root>
        <mxCell id="0" />
        <mxCell id="1" parent="0" />
        <mxCell id="X1Yw7-wLJlJX0ygBhxK6-1" value="" style="shape=image;verticalLabelPosition=bottom;labelBackgroundColor=default;verticalAlign=top;aspect=fixed;imageAspect=0;image=data:image/png,iVBORw0KGgoAAAANSUhEUgAAAhcAAAHzCAYAAACT5D9BAAAAAXNSR0IArs4c6QAAAARnQU1BAACxjwv8YQUAAAAJcEhZcwAADsMAAA7DAcdvqGQAAHedSURBVHhe7d0JeA3n/gfwL0FsCSILQaRiqYgllto1RWkpvZpyS/WWaks3vbdor25XdfEv2ttGe0nXtFqUi6LRGw1SQaSEIJLaI9YsgkRwEP7znjNH5pzMWTMn6/fjmScz7/vOO9sx7++8s5xqM2bMuA0iIiIijVSX/xIRERFpgsEFERERaYrBBREREWmKwQURERFpisEFERERaYrBBREREWmKwQURERFpisEFERERaYrBBREREWmKwQURERFpisEFERERacqtb9++s+RxqkRu3+ZPxhCRa1SrVk0eI1LHngsiIiLSFIMLO4hegIo2EBG5ito5p7wPVLoYXBAREZGmqnRwoRbdqg1ERFSxqZ3b1QbSRpUILtQ+QGIgIiJSUmsrxECO4WURIiIi0lSlCy4YcRIRkdbYtjimUgQXPNhERFTa2PZYVmGDCx5UIiIqL9gmmapwwQUPHhERlWdspyrI678ZTDiO+4yIXIWv/3ZcVdtn5bbnwhj5ladGUrlO5X0gInIVtXNOeR3Ki/K4Tq5U7oKL8rDzlR8C5UBERBWL2rlcDGWpPKyDq1WbMWNGudlCk51dtzbO6a7hWFYOzl24iPhP3pcziIiIKo5bt27hUl4+Tp46h9Q/j+DsuSw5p/JeLikXPRfmUdw5N2BF8j7Epx3C6fO5KJQODBERUUVUvXp1NGrYAJ1C2uGxR4djUFgfOafy9mKUeXBhvlMPXr+mDyqIiIgqIxFkjBo5RJ4yqGwBRpkFF2rRmuix2JeeIU8RERFVToEBzUx6MAS1drGiKpPgQnXn1a3NHgsiIqoyRA9G0ya+8lSRyhBglHpwYWmniZs3iYiIqpLgu1vLY6YqeoBRasGF2FHWdpZ4KoSIiKgqadG8iTxWnK12szwrleDCnp0jHjclIiKqShp4eshjllXEAMPlwYW9O4WPmxIRUVUjHlO1R0ULMFwaXFTU7hwiIqLypiK1qS4LLhhYEBERaauitK0uCS4YWBAREblGRWhjNQ8uGFgQERG5VnlvazUNLhhYEBERlY7y3OZqFlyUZCMZlBARUVVVGdtPTYILZzdOzMfAgoiIqrqStIflsR0tcXDB4ICIiKhslbe2uETBRUmiLAYlREREpkrSPpandlXTGzqJiIiInA4uKkNkRUREVB5V9DbWqeDCmZUX8zCwICIiso+z7WZ5aGsdDi4YIBAREZVvZd1Wu/yeC3siLwYsRERUVdnTRla0dtKh4MIVG8fAgoiIqrrK1r7aHVw4s5K25mFgQUREZOCKNrOs2lmXXRZh4EBERKStitK22hVcuGJjGHwQERGZqiztrc3gwpmVsjUPAwsiIiJ1rmhDS7vd1fyyCAMLIiKikqnobanV4MLRlWdgQUREpA2t29TSbINddkOnIxh0EBFRVVUZ20DNggtnIywGFkREVNU520aW1za02owZM1TXzNEVtlbenp226uhReUzd9og58hhZk3z0OFJPnMLR02dxMicXWRcuIu/KFehu3NTnu9esAc+6deHbqCFaeHshqFlTBLdsji5Bd+nziYiodM3/9Ct5TGqUq1WTx0xZShes5alxtLwzNAkuShpYCAwunPdb0l7E7U1BQupBXLt+Q051TO1aNdE7uB3COofg/m6d5VQiInI1ZXAhuDrAYHChwODCVM6lPPx3SwLWJuzExcsFcqo2Gtavh5G9e+DRAb3h3cBTTiUiIleojMGF6j0XWgUWljgzDxlcv3EDi9bF4OG3/w/f/xaneWAhiDpF3WIZYllimUREVDpc3a6WRhvs0qdF1DbA3jQqTlz+GPPuR/qGvzT2mViGWJZYplg2ERFprzK2lcWCC0dW3lpZe+upSDurLM39aTX+9d0yZF28JKeUHrFMsWyxDkREpD0t2kxH2lNXt72l+p4LBhKOO52Ti2f/vQg/b/tDTik7Yh3Euoh1IiIi16rIbabTwYUW0RODDevEI6UvRHyBlOMn5JSyJ9ZFrJNYNyIi0o4WbWd5aVdNggtXrhQDCceIxnt6ZFSZXAaxRayTWDcGGERErlVR22XNL4vYu7IMNiwTlx1e//oHlzwJohWxbmIdeYmEiEg7laUNdSq4cHSjzMszsLDuncXLy2WPhTmxjmJdiYhIOyVtM8tDG3snuNBiZdTqsKfe8rAjygvxREZ5usfCFrGufIqEiMh5zraTWrSdrmp/He650HpFXLVhFZF4l0R5eCrEUWKd+R4MIiLnVba2VfN7LmxhMKFOvAXz8zW/ylPaqevujmE9u+Gt8aPx5uOP4sF7uqKOey05Vzti3fkmTyIibVT0trLUgwslBhpFvvnfJs3vsxCBxE9vTbsTVBiDjOVvTccDPULlUtoQ6y62gYiInFOZ2kTNggu1nWKexmBCnfgRssWxv8tTJde6WVN8Ne15fSDR2NNDTi0i0t5+Yoy+TKumfnJqyYltENtCREQlZ08bWl7b1epixexdOS03orzukLIgft1Ui/3RqH49LP7n3/H9a1MR3LKFnApsP/AnnvwwAk9/9Dl2pB2SU6Evs/ifL+PVv/4FnnXryKnOE9sgtqXU3dQhLy8fOnmSiFxBh5Sol9E7sAOahT2H2bF8z40rlEU7K8ppuVyh2vTp0+2u0dLC1dLN02xN/3z8uDymrjL/5Pqw198r0Tst3KpXx6h+PfHciAdM7qfIzb+MWVHLsOuw6c/Zd2/XGtMeHYmWfj5yCpB35Soif9mANdsSccvCcbaH+Ln29R+8KU+5Sj4y4jYgKjoam+IScThbThYCu2BYv4cwduJDGBhUvNeGXCMl6inM3ihPCG0n4LO3BsBXnqSKT5cQgV5jI5ElTwPh+HL3bAzzkifJaXP//YU8ZmD+k+i2pgVLP6PuyM+rO1LWFrsvi1gKLKhkxFMWJQksOrVqiR9m/h2vSMGC+Y2aXh718Y/RIxHa+i45xWDXwSMYP+cTzP3pZ1yQly16LmaMeRjf//Nlk14PR4ltceWTI3n7luKZsF7oPeFtRK4wCyyE9GSs/+E9PDFIKvNCFLaZ55dXunx970vRULH6YXR5idgWrxjO5cs5ZLeC8v0ZuJR9VBFYCKk4eU4epXKrrNruMrmhk4FKkbi9KfKY415+5CEs+vuUOz0Qhbdu6X8iXTy5kX/lqj7tria++Hzqs/hg0ng08WqkTxNE2Z+3JWLM7Pn6eyVuFhbq08U9GOJejJcfGa6fdkZJtsmajOi3MXTke1ifLifYkBE9D2OGPYfI1PLfUGfFvIn2nXophigkyXlUNSR9rTz+0jAz1qwxL1u+/cIxIVCekPg+MhEPBssTpKnK0Ea6JLgw3zEMJixLSD0ojzkm8h9T8NewvvIUsHH3PoTPmotF62Lw48YtGD17Hn7e/sedSxxhnTtg2Rv/wDPD7ketmjX1aULBtWtYuPZ/GPPuR9i4Z5+cCqnufvqgxBnObpM1ebHv4eEXViJDnjYR2AV9+/dEN8WJ747sLZj95FtYzcvDRCXjNQDvx/yOmKXfYPnqGPz+8XAEyFnkWhWxTS1xcKHFRlbV4CP56HFcu+74uyHqutdCx7taylPApYICbJca9GzFkxriHoq5y1bjb//3KfYdM7zxUwQVEx8YiOVvTcOg0E76NKOsCxex/cBBqa4rcgrQpXUg3BWBiL3ENolt00zuFnw4c6nZtzhv9J00FzG7D+B03I9YvvgbrI07gGMJP2L+hC5yGVl2NGYv2gI+x0JUQu7eCOndE31Dm8NTTqKSq4ztqFufPn1myeOlwtIOOHjxojymbtKDg+WxymNTcgr++POwPGW/0DatTN5TUbtWLdzbqQPu6xKCE1nZOHv+gpwD/T0Vv+zYhROZOegQGIB6td2loTYGhnZEj3ZtkHriJIKaNcX8yRMwsk8Pqa6iYKKa9G/XoSM4m1tUn73uaupnEgA5T4ekL1/Daxtz5GnBG6M+/hHfTukOX7OHXGp4NEHHsCEIvfozVicVBUoF+3Jw118eRseGcoIaXT4O70/ElpjN2JKYjKTjOdBVqwW/Rp6oYWcYrss9hr3JSfh9/RZsT5LqSDmNvKuFcPPyQQOVd5flHU3EroOncXzfdqxLPC2nCs0R0rMuCk6dxslT19GwRSO4yzkmbuqQ8WcSkhLisSFO+pt0FFk3qsHdwvLu0OUgZed+HNbXL4Z81Pb1Qb0aUl52Gtavj8amrclIudEcXVrUNcxjxdnE/2Cp8kGhtvdjyvC2qCdPQtov25IPycuShgu14edXF2JxuCnt973S+q8V+ywNJy/XQOOm8rooGPfVnTqs7RfBfJnSoKvXHI3VHoxy6tjrkLUvCcnH1OvXnU3Dls2xhuMi1Vettg/8vczXtqiOtKQ12KS8otikFbo3lQJ/Ubdyf5kzX3cbnzmjYvvzegME6NcvHxkJsVi9fjsSk06jdse28BULLrY/FZ8ZC8z/P6ScyUNhDS80lpZjZbYqZ1tCks2bNM3zbZVXspSuxpGy1tj9tIiloMA83dFpQaStSbd+Ib0yPi3y7uLl+HXnHnnKfoO6dsK7E8bqx7fsT0Xv9m1Rs0bRf9VtKX8iYnU0TmYrG2QRhNTE3+4Pw/jB96KGm5ucaurGzZtISDuEAR0NF1Pf/HYJNu3Zrx93xINS8PPWE2PkqRLQJWJ2u6cQKU/qDZ+LPZ8Pt/4kQm4spnd9GUvlSaHvnBgsH9tcnlIoOIbVEfMwN3KL+mUXn54Y++oMvD26vcVva7qj0fjw3QhExlm6/uKNNiOn4LP3xiJEUUlSRAeM/FiesGgq1qZPRjd5yiAfKSvmYfbclRZuWhXLm4j335qAvkUPBRU5G41ner+K9fIkMBifJcxFyNb38bcZistPr/yI01PNeoJUFNsO82O0JxLNRkXIExI5v/a+KLwwaR42mW+DtM8nvzcbbw8tOl7Fn1boiflx32Cs2uUwScaK59B7xhZ5SuIzGcu3TkVfZfteomOfg9Uv3IsXo+VJyWurD2Bqx1NY/95reCYqWU4tEjD8TXw5R/kZKF6HKrXPfJ607p++h9lfJ1q8NyNg+AzMn6X+GSh2zMSxHq/Dhy+8iogE47lDfC4+xSgpyCl2DJV55k5tQcSc9/FhtIX/D4EDMPmVGfj7yFbsAZF8+HGkXcGCo9NGltLVOFLWGru+j6kFBFpxZd3l3UkNfq58w65kjPvg34jfnyanSI1oyN348fV/YNroh9GgXtG3TnG54ovo3zDpo//gdM55ObXIln0H8Nf3PtbkaQ8ttk3Q/bHFNLCQGs3XnrYRWAheg/H+vh1IUwxfjVQJLHIT8eH4EXjRUuMiZCdi6YxHce8r0apldNJJd/SgV60EFkIODq99D0NHvo31Jb3/Q2oQl77yEIZKQYDlp2HE8sQNrU8hYo+dN7QeWIppysDCxa6lRmH8SJXAQpD2eeTkx6VGtyhAdu/aE4+ZNJKJWJ1gaWfmIClOEVhIfJ8YYBpYaHDsi8vHplmPqwYWQka09Bl4MhIpJb3H+JQUPI+U1t1KYCHob2ru8bidn4EcbPpYGVg4Jy8+AiP7PWc5sBDSpf/XU0dIn+HYUvu8lXeVrZ0t0T0Xjq5wVQ4k1Ij7HLRwWmrIX/vye0z9/GuczDKcGGq4VUd4/174779m4PFBA/Q9FWJ44v578Z+pz6CZd2N9OUF34yamLYzCP7/6AeecuASiRqttO3woUR4zCkdfO99c7u7pAU/lcKeP3igNkZNE4ytPygJCe+pvEBXXlZWyVr2KFyOSTV/WpUtG5BsRpk92+LTCwPGT8fZM6Rvv5OFoo2wQ01fimTnRJXgKQGq85kzE9FXFGwCx3ibLEqTG8cNn7bmh9TS+/fzbUnxC5SiWzp1nY3nSt/pZS7DNuMPde2L40+3lCYNt6xPVG6eziVhv0hvQHlMGK3tgNDj2Ki7+9i2m/WCjcd4TgQ/XliTClNb9pZex1KSz1xtteodj8szJmDC8i9mNlsn48I0oJNla+c3f4hNb626LCBifiCx+XKX/E+b7VMhY8bJd+7WqqshtbIlv6CyJqh5s5F0puidAC+L9FY/P+Tc+XRWtfwpEEPdXvPDwg1jz7j+lYab+RVsiTbh89Ro+WbkOg2f8Cwlp2j7hodW26QqKemT0hgfB+bdwmMpYEYHZysbFZzjmx+xAwupv9DeIijvi90SZXo5I+ngeolLlCeFgIr5VTouu4tXrsPi9qZg8eYJ0sp+LuNVzMUrZ6B9IxK6zhtFuUw/gdPoBqb0xv6dIXAox5J1WXBLRJRRvvLpN+BQJBw/o1ztup1SX2Trbd0NrGpL2SPUGDsbbkT9K9exA2tb/Yrm0v10iOhIRcd4Y+Oo3SNi3G8cO7sCe9XMxwTxwzI7Exj+Kmp6Q/g8hRB7Xi4/FNpUrqlk7Nygu+UiCH0JfxWOTmhx7FZH/iURW6Fh8tv53pB2UtmtfDJa/WvxlYpvWGoMib4z63HCc176iTygiLoUYPwOKSyK6hN+wyHzdN25A3NLZUjA7Fe9/Lh2/1VNNPwOpEYhW7EdVe5KloEDcKD0bi9fHIG3f71I9U9DX7pdknSoeMPoMwNurd+D0znX6fXp63zrMf8RbzjSwZ79WFZWpTdQ0uGDPhGNEj4HWbhbewk9xWzF69nys2b7zzqOojerX178eXBBp4jHVR9+Zi+W/b9e/80Jr2mxbDjLsjXnykrE0MgqR1oYVyYoGNg2/fqvsNvfG5I/fxdh2pm/19A2big9mKr8tJ2NVfFHAk5WeatYLEYQA8y9ozYfjgx++QcxWqcGWgoDTcbMxTO06tU352CY1yibLC5uNz2YNRoCiu1+s82cfmwYrWT8sRbSt94OESgFN9KeYPLQL2vh4wLN5e/R14VtOu721CIuf74kAT3e4u3vAN3g43l8wF8PkfKOUU4rrJsE98YjJuxW2YP1O816AfOySgg6lgRMHK4ISbY69Kp+xWPz1mxgV7A1Pd2m7PJuj7/Of4Kuppj0uiD+Gk05+XXfvPRV7juxGmtRgr126EF9+8SrGBpneKOoeOhwTh8oTspMXbL3YTAp0In7E8rfCMTC4OTw9vdEmtD18Tau2LDUWUXHyuJ7Yr59gcqhiv3q2wth3P8VUk2OYjEW/JLL3wgnluc21GVyUZOUZbJQd8abMD5etwoS5C3Aqu+j+ihOZ2frHU8VjquJx1Uqj4DQ2zZmH2daGuNMw9OdIpKBgo8m3pXAM769+FjX/tpyyNfVOV7xvYLDZt9JIvDMrGim5pqdKz3Y9EdJcarDtPVGr0aVi6w/yuGzYI/eqvmsgYPg4TJbHDbZg2wHrXd5jp4xDt2KXjlylJ8YOMmtwheadMcysUdxmcmNyezw4cYA8brAp2uzSSG4iNq2Qx/UGYFgPRcSn0bFX9cj9Kt/03dGtv+k6i2/5WSW5LamGOzx9WqFbb2nbQk17AvRyj2H/bnncXsETMUXtviQ7ZezdApPX5/mMU9+v9bpg7BM95QmDLCnwd/y5uaqnIrXHpXZZhIFGce41Xf8w1pHTZ/Uv1jL6Mvo3HDubKU+5jjbbJn2bdf5cZ5Xu5DFsk8f1fH7Dh088hTFqw7srTXsL4nNw57u0FDRMNHtLYVLUqxjatSua9Rghzf82ZkeuxPo9x1DitzmfPWV68pYa2u6tVRoWwb0ZOpo10quPWr/OH+Bbmr/F4oHaqu15banhlEctCOgxGAPlcb24LUiSLzMJebt3mDwlhOEPYZDiiRLNjr2aeu7qj8ZKwYBLiMdQ9yRi/QrROzcP08U6jxqKZl2fQ6TVFVVxl4/tG6Ut0uFkutn9UUPbo408ai6gtfm7aFJxWHEMqUhFbTudDi603OCqGnh41rX9/oCKSpttc0eDBmaN5x+ncFIeNVHDAy3EjXjKoZ2Fhldy6YJZQ5stNTjK38ZQDgnHzC59KKIE9y6YPH8GBqo86meocyUi57yNZ0aNQPt2Q/FMxBZkOHvF6EKOaaOIZvAteqO7GduNdIUVOARjR8vjerFYv9PYu5GPXXEmoQXGjjS950GzY1+WxGOoc55D73a9EDbqKTwzQ/TORWGpWOc9JblZ1Fn5yDJfrK+n5cdMXRVsVVCVsT0tsxs6q2pAoeTbyNobnSo2rbYtoO398pgs+zfsUrv5S9w4Jm7EUwyfvWD7/QzOOYoMxbcs9+AJWLxxHb58JVz9FeR3nML6j5/Dw1NWsgu4RDzQb3C4PG6wPkZ+JLPYpaOxGNZbyx4Z02NfJnITMftJy4/Qiidexk6eign95QSqUCpL2+iy4ILBg20tvCvvbxVrtW2eXXtJzYNSGhatsefmLx1Sdpve1OfbodWdb7C+Tc2egug/Gwl3ns6wNai8OMizFYZNnW14Bfm+GMQs/RTzZ07A2N5FyzTKin0bkTFO/GqoT3Ozmx1jrfwq5TVcM3s8JKRe5fm26Bk23PSekug9SJG21/y9KL7P34++Zl+fNT/2pSzph1cRafK0SE9Mnvej/qkbsY7iiZf5M8PRvVTfTuWNAPMHiw6eNuv1KaK7bP7skg8alNr9PhWbq9tWUb8WyyiznguC/rXbzlD+/kddd+0bjPqKi+HKZTnC2W0rxqsnho03vbyRFRkhnVythxe6PVH4JEqe0PPGY6Gt5HGJ1MCYNNTxe5FS0vd+3dRBdxP6JwRCeg+Wvj3OwPyl67Bnq9mjqJKlB4/KYw5o3gwdzeqJ/sPC0wvpiVgfL4/L+rZVbH9F594Fg55Xfi6WYutendl7UaRj3r9L8XsgXHHsS00adv3P9MbcCfMW4u3RXfRP3RS5Jn0e5dFS0qK12ePU0YnYpbpfddiV8Is8LuvfHq35qs5KxWpw4Uj0Yq2ss3mVXXBL5+5WPJCecefx0QlD75Pq0erND0D7gGZ46oFB+nGxjJTjVu+Nt8jZbSvOAwPHTTR9Zl+8FGjUU3hjbRryip1AdchKiMTTz5q92Cp4Iob3Vpx8m3fGwDB5XG8llsaoX6vW7YzEE/obM5didVwyDt95EiQfSSuiMHvGUxgz9F40a90VL65XeSKjeU8MukceL5H26DbaNNBK+WolNhU7geuQtGopNslTBmPRr7P2gWjZcUff+8eZ9AptOxSPw8pgy/yYG2ly7MuKFMCaXBbsiZBAlW08uxfri+7jLhW+nQaY3mgr7ddFq1WC31OxiPqP6f+TkLDgKv8Lq6XRhpZme8ueizLUJegukx8Ks9dV3XUslJ8A8W/sha+mPY/ZEx5DEy+Ld/fZ5Nuwgb6Or6e/CB9pXBAv2NLdcPxXW8U2iW3TTPAEfPCW+f0TyYia+ija9x6BMS+8hw8jI/DGC09hZFhXhI6NMHuldHtMfWes6cuX0BzDx481aZw2zXwcT/wnERkFcoL4UTARqDwv1ae/MfM9vDjhcUxba/yBMQ+45/2CyBWJ2HbQcLJc/+5b+tcnFzVBUrATtwTfmv12xIRg0z7kBo3Mg7HfsGppMjKyjyFpn7E+qUEdM9X0BJ69FE9Meg9L95xCXl4+8rLTsPrd5/B0hOlJvZt4d0Fl+2YYOgBTFE/qpKxchEWKBjXkYanhlcdNaXHstefjY/p4JqJ/wbK4Y8g6lYZtR42X0bzhY3IvRSKWrlW+v0WSvQUfvjLX9CVipSHwIUyZbBr8Jr07RdqvW3A4W/psSp/PjIQoPDNe+Zs2Ep+xeG2UymPJVKGVSXBRlXsrzPUObiePOWbJxi36wWhw1876n1KfMmKoQ5dKxNs6X/rLMKyc9aq+DqPvNmzGyvgd8pRjnN0ma0ImLcLy51Vu0BR3+kcvRcScSERFJyKp2IuivDFqzlz8vUfxfeI5eAreN3lbYA42zX0KvTt0QLNAaWjdFb3NA5XQqfjX6KLLCyGjpmKC8lKFOLGPvRetxPz6QQp2Jpi9DlmqY2x/05sM3TuEFru3JEpq8Hr3GIGRI5cUPYIaGI735w02vY9jz1JMHzUU7Tv1Qvsejxb/vQmxzo9VxpN3e/R9WLFdqWmKR3V7YsJQy9usxbHXWkDnAWbBkPRZmjACof0exZi5xps3m6NjP9PtSvr4cbQPe9zw6OxYqXyP56QAV/rCoPYEk0tJwe/UuZhqclOz2K/PIayH9NmUPp+9x87DerPXlo96awIGVt7bz5xSGdpI9lyUsbDO6t+t7PHZml8x5ZNFd95bIX47RPzq6Yp/zcDDfe5BdSu/budWvTr+0rcnlr89HWMH9tdPC6Kupz/6DyJ/2aCfdkZJtskyD/R9dRHi5oXb330qbnSL/BGfjW1V/Lq7njeGzZXyR9t5CSd0LBYvmGz6oimvAXh72WyLv8xpzrf3ZCz/ejJCzFfIqz8mvGrp6ZajyFD02geMnovFbxV/pbQa4/JK7+VYpStk6Fj0lcdNhA1HX6vHRINjr7Xgh/Cy2aux74g5euf9GiHj38Rr5q9JT082eXS22yuf4qMnDFmlql5PvPbDwuKvcVfVHGPnfYuPSvDiLiq/GFyUsfu7dUZD+bXczth37IT+jZsf/3ct8uU3borXfL/22Ch8/8+X0b1da32aUq/2bfHda1Px6l//cueV4GLe+SvW6utKPaH6Jgm7iG0R2+QaHmgzejYSdv8X1h779G03ABNmLUTCxm9MfrJbVY3mGDUvRvry/yYmhFkoGyjq+wZ7VryJgSpF3IPCMX9tDBbPtLZOw/Fa5H/x++KpFn6rwR0hz3+DuAjpW1yxOmJxyOSQSGUnLcTvMZ/itZHFn0YRxD6YHLEOvy+1tLxKIrAnRpncP2Fg6c2lJjQ49tqSAp6Pf8HamWY/dqeXhkPGb/z1umDqd+vw2eQBxbdR/ET8vP/ih6ldYLi4WQaaD8D7K37H8lljVT7LQnN0Gz0Dy3fGYP5oS4E/VXTVpk+fbrH/xVLXjFq6eZpx2lpZZd7aEyfkMXXbI+bIY5WPeIPm97+ZvJTfKeLn1Sc/NBR/6Wt69+Chk2fQtoW/fly8sbO12ZMc4ndGIqV1cPbJECXRcyIuzZQWXV6+4v4GiZvar586oCAfeRdOYf/JPDRoEYwAz1rwdPCd3WKdLmUfxWHpK6Rv6yD41XV8nZTb5S7N727thVg6cT07G4ePSN9tfYMMvwtSoveMV1EaHHstmXwGPKXPgDxu4qZOWufT0rHPg6f0WQuQjn15O/JiOzJPpeLkJU+06NBc///B6ue5Cvq/jxbJY1KjLPc4G/8qWcqzVtacpXRz9pazhMFFOZBzKQ8Pv/1/qvvKGSJ4eH1cOO5u0cyQIKo1fk4U46KH4v+WrdYHHFoQH8Y1s/8J7wZ8poyIyF6VMbhwyWURrRrJqkI0xk8MvleeKjkRLEya/zne/WEFzkvfGqRPiZwjkcZFmsgT91ZoFVgIYhsYWBARuVZFaGN5z0U58dQDA/WPg2pFfPh+/WM3HnvvY3z9ayyyLl7SD19Eb8Bf3/1In6clse5iG4iIiDQJLthTUXK1atbECw8/KE9pp+DaNX1w8Ze3/08/RMVswhWdyV0KmhDrLraBiIhKV3lsg9lzUY6IpyzMb8asCMQ6u+4JESIiqmjKRXDBno8ir/51FELuailPlX9iXcU6ExGRcypjG+hwcFHSncBAwrZ/PTFG0/svXEWso1hXIiLSVkVva3lZpBxq5u2FDyaNL9HLtVxNrJtYR7GuRERESgwuyinxq6LzJ08olz0YYp3Eumn3y6dERFSZMLgox0Tj/fnUZ8vVPRhiXcQ6MbAgIiJLGFyUc+Kywxf/mFIuniIR6yDWhZdCiIjImjILLnhjp2PEExnvPPlYmVwmEcsUy+ZTIURErlVZ2kbNgwsGDa4j3iWx/K1p+h8HK+l73+0hliGWJZbJ91gQEZUf5b2t5WWRCka8BVP86qj4gTDR8LviiRJRp6hbLEMsi2/eJCIiRzj8q6i20szzLU2bz7MuI0OeUleZfxW1pH5L2ou4vSlISD2Ia9dvyKmOqV2rJnoHt0NY5xD2UhARlaI58xea9EYbx817qK1Nm+cJ9qapsbecJQwuKpnko8eReuIUjp4+i5M5uci6cBF5V65Ad+OmPt+9Zg141q0L30YN0cLbC0HNmuqf/OgSdJc+n4iISheDC4mtNPN8S9Pm8zC4ICKiqqgyBhe854KIiIg0VebBhXnPBhERUVVT2dpC9lwQERGRphhcEBERkaYYXBAREZGmGFwQERGRphhcEBERkaYYXBAREZGmGFwQERGRphhcEBERkaYYXBAREZGmGFwQERGRphhcEBERkaYYXBAREZGmGFwQERGRphhcEBERkaYYXBAREZGmGFwQERGRphhcEBERkaYYXBAREZGmLAYXt2/flsess1bOPM/eOomIiKo6R9pQe9tXR8rZW1YNey6IiIhIUwwuiIiISFMMLoiIiEhTDC6IiIhIUwwuiIiISFMMLoiIiEhTDC6IiIhIUwwuiIiISFMMLoiIiEhTDC6IiIhIUwwuiIiISFMMLoiIiEhTDC6IiIhIUwwuiIiISFMMLoiIiEhTDC6IiIhIUwwuiIiISFMMLoxu6pCXl488nTytVCClq2ZoR2dp2aWgLJftKrrUaETFHEMl2ywiogqBwYXR/ii079QL7V+JRoacZJT0tZTeKQpJ8rT2khEpLXtaTI48XZrKctmuko9ty+fijTd/w2E5hYiISg+DC3PRczE3ujI1tFWRBwa+uQFpWycjRE4hIqLSw+DCxGC8PfNerJ41F+vPykkW5B2MRdSctzHmhffw4YpEZN2UMyR5e1YiMnILDucmI+rNlzFmRiTWH9UBN3OwLeo9PPPEy3gjKhl5cvki15C3cyVmz3gK0+esxLZsOVnIS8bSyChsOpqPJH0dS5EiZ2UlrMSH0nKeeTMCS+NO2bgUkI/DMVF44wVpHSJjcbhATlYS67kiwlDm45XYdMpyjRmxUYhcodwWaf1WSGmxp+RpSd4pbNLXJ7ZrKdYfzJcznJt/9R5F8Gdhv2TELcXStab72LifxsyYp79kUnz/ExGRFhhcmPEdPhZvN4/GG59vsdj4ZKx9FfcOnYdtaIVBndxx5POnMPSJKKTIbfC1k1swW2oE585bhcwWoQi5sATPvBSB2bNexerc5ugeDGya9TjGf51mmEF2KS4CL0Qdg1/rAfA89QXGDHsKUalyZsFpbJozD59MfxnTdruje6gP3KUwIinicYROjUa2Vyi6e+Vg9YyhGB2RbCHAyMemNx9C2JtboAsKRUCBtJ6zlmC/nKtXkIyI0ffixVU58OwUCs/saEzr9xQi9qjXmJ06D7PjTkthkZFOatiltFQ5ANClIeLJoZgWA3QfPQF93bbgjaFTEClvl835xfqI+aX1CRg6Dn3r7cDcUeF4I1YOUFT3i3m9pvtpUNN8rH9zBIbOiEWWPp+IiLTE4MKcW3tMeGcqWvzwFj6JV2lQdYlY+m40QuZ8jS9nTsDkyTPw5apPMShhHj41uW/BB6NmzMZrkyfg7U/fxYRUKfi4+03Mf0WaZ+an+OwVbyTFpZrc37Ettyfe/3yGVKc0z+dfY36HRLyxxDTIaTBmNuIipDKvDEab9F/wycc6TP3PQkO9r8zG4o8n4OTHkViVLs+glCp9c/8BmPxxUfmvRvpgl5wtZKyPxIe6yfjqK8O6vzZnIT6bfAoffvpLsXtR7HJQ2l97WmHKK1MxKmwARr36CdasfhOjguR8W9yD8OCr32C5tD6TRw7GqKnv4f3xOYiK22N5v8hpd+j30ymT7V7+3Qx4rngXy/bIZYiISDMMLlS4d5qAf031QeScSCSZXzY4mIxl2T0xrHdzOUHiJU2PB9b/kapo8JrBz0serecJP+lPA09Pw7SkRWAXID4Hyisfw0b2RIA8DjRHx/7tgZg0k0a9x91Fy806kIhNCIbfzWRsS0jUD7sKfdAdW5ChrFiWdWQPUvAQBt0jvtsbuPe/H4/J40AOUhK2AJ19cG2fob5tCcnQeUnrGnfaZF3t1q4L/hJ4DIv+8Spmr4hF0tF8+HVsD9+iVbCuhgfa9O4Cv3PSNsZFIypyEb6NkdIv5Ct6O0z3iznDfjLdbgT3xCPBOYjebdp7REREJcfgQpU7uk2WvgVnR+Kd79JMGjEUSo0VPFDbpHH0QAMRSJg1eA6rUVseMfBs1AyiRbd4x0OhyMnG4X1pSDEOB4HuM2cgoEbRfQ2mPM3WHagj/xV0osqzR4vqk4bDCMXbM6V1ceYmBfcueG1tDD562gd5a7/Fi4PuRavBLyMq1eJWmToVi+lhXXHv85FYvztbCnSkQG64nGcv/X4y324P+LYAUgrsXA8iIrIbgwtL6vXE3+eMxcm5i7D15mA5UdKkOYYhFvuPKBulNOyKBXw7tIKvnOKMXX8eVQQSOhzZJ1U6vDmkNlCVb4tgaXm10H2kuDxjOowN9ZBLFfFtKq5FJOKQ8pJJ+lFslUcBbwS085a2PRSjlPVNEn/D0a2o48VU3jVFUCWNKW5u1XPzwcDRMzB/8Y9IOLIO77eIxRuxih4DK/OnxCzC0rozsDhmId4XlzRG90SAvb0eMsN+Mtvu3D+xLQYYFWS5x4OIiJzD4MIKz8FT8P4jyYiIkBp5o6YDMHa8NyI/jsSmU+LlWjlI+joCi1IH4NVh7eVCTloRiU/iTulf5pURJ41HeWPUsJ6WA5bQAZgSGovZ81YiJVsHXUEOUpa+itDAt7E+Vy6j1GkAXgtOxNwIUV5a9+w0LP38C5N3QXQbPBHdoudi9tI0ZEnf6nWizKv3otmMWNWOizbBY4H4CMwV5fNOISkqCt+elDMluoQIhHZ4Ch/G5egDJ925Yzj8p7Qc+RKRrfl9fUTvTSoOp+vnRpa0Xz6MNOTZTb+fFNuddwzrI77FUh8pCAuTgikiItIUgwurvDFsxlsY5SNP6nlg4MxvMf/u3zCtn3i51r0YubgWpqyYi7GBchEndZ85FR2jJ+lf5tV7QjQazPwUHwy31vi1x+Svv8HE3C8wtEdXtOpwL4ZG6qR1mYFhxvs9lNy7YPKC2Rh0IEIqL637sHnIHvcGJsrZesET8MPicbgU+agUFEh19ngUEbqJWDtzMNQ6LjwHT8DiSUHYNlMq32kSFiEcf39AzpS4956MxbO88fOEe9EqsANa9XsXh0fOxUejW+nzbc3vO0gK8O7ZixfDuqJZYFc8HB2MiVPlTLsp95M4ZiPwxsEu+GzZVPStJxchIiLNVJs+ffptedzE7duqycXSrU3bk2f8uy7D+rMI2yPmyGPliE68NrsWPD0d7Ke3QbyOW+fuAYeqFa8oL7R/XcQyUNcD7jXkBBVOrYdF4vXq1+FuY5kWie2TAjvPkgYDDu4nIiJXmzN/of5vtWrVTP4KynHB3jzBfNrIUroaR8oqseeiJETD64JGyt3TiQa9nmPrIpZhq5F3aj0scpfWz8nAQhDbp0Uvg4P7iYiIHMfggoiIiDTF4IKIiIg0xeCCiIiINMXggoiIiDTF4IKIiIg0xeCCiIiINMXggoiIiDTl1qdPn1nyeJk6dOmSPKZu0oOK3/coBeYvACMiosrB2RdDucrW7bv0f43rpVw/83W1N08wnzaylK7GkbJKfEOnGbE+yVvjcSxlH86fO4dbhYVyDhERVWTV3dzQuEkTtArphC79+jvdcGqtMr6hk8GFwqXz5xG7fCkaevuifY8e8GvRAm5uzr5SkoiIypPCwpvIPHkSaTt34mJOFgaPGYsGjRvLuWWHr/+uxG7duqUPLFp37IxBo8fAP/AuBhZERJWIOKeLc7s4x4tzvTjni3M/aY/BhUT0nuzdGq/vsejcr7+cSkRElZU414tzvjj3m/eyU8kxuJCID9axA/v1l0KIiKhqEOd8ce5ncKG9Kh9ciA+VGMTNm+IeCyIiqhrEOV+c+43tAGmHPRcS8ZkST4XwHgsioqpDnPPFuZ9xhfYYXBAREZGmGFwQERGRphhcEBERkaYYXBAREZGmGFy4yLWCApz480/9IMaJiIiqCgYXLrBrUyyi5ryHX3/4Tj+IcZFGRERUFTC40Fjylt+lQGIjmgQEIGxUuH4Q4yJN5BEREVV2DC40lrwtHl5+fvjLs1Nwd7fu+kGMizSRR0REVNkxuNDQhexs/f0VgXcHS1PKX5Krpk8TeaKM0wpvoODKDfBH4MuXQt1VFOjK5qiIZeuuyxOVwg2cSUnD8Tx5kogqJAYXGqpZq6b+77WrV/V/lYxpxjJOSU/Awi8TcFSepPLh6MZVWLjxjDxVusSyl+ypRC3xlePYunk34g9dlhOIqCJicKGh+g0awrd5c6T+sQNn0o/LqdCPizSRJ8oQkQV122LM84/hb93rywlEVBG59enTZ5Y8XqYOXbokj6mb9OBgeUx74gdrdsdtQveBJV+GRyMvHEreg4O7k5B16hQO703GH79t0OfdFz4anl5e+nGnXDiB7YeAdr1aorE0mbV/G+Ky6qDZjQz8FrMD21JzUNioKfw93AzlhSuZ2BW/C7Gb03CkoCaaNSrAzt/PoU5QY9RDLvZs2I1zdbxwcWccftmci4ahzdDIfL4LN1HfzwcN7nS6FOLS0VRs3JiIjfvPIu9GHfj51UetO1eCpPy0ZGyI24XtqZm4VL0xWvjUshzJXsnF/sRExMTux4HTBajh6wuf2obShm2sj7Z+dfTTgkjbXeCDlo2K9wIVHNuL31IL4eeZix0xCfg1+TQKanoj0LuWXEIwW7/bHmjqWweGX5aR90k9aZ/8IfbJIZys0Rit/Wrg3J5tWP1rEnYfuYzaLZrBx10/A84f3o+DaI7Odc4WHYcGPvD3NK6f5f1ccCoN8Zt3IUZaz+L70ZxyvQ3H2v3cAZys2w6hzeWVKbyMtO078FvcPuw/abovi7lyWlr2cdxq2gR3dqU+zfj5kEj1Hdq5EzGbdmFP+mXcqO91Z7uM+7pZgCeMe1efdqpW0fHSH9ud2BiXZGH+G2hY/Qw2ro/H3pst0KHJZeyJTca5+gFoaowvTD6LOtRp7ItG8uYSlZS42b5r2EBUr14N1apZ/M/nUlu379L/NS5fuR7m62RvnmA+bWQpXY0jZZXYc6Gx5kGtMerZ5xDQ7m6cOX5MP4hxkSbytHTxZDrSEuKxfOdVBHTqiI4NchC34n9IvCAX0J3E2h9isfOSJ0L7tkdbHMGqdfuQknYOF/UFCnAyLR1bf9mMPWiBXvcEwFMkX0jB919vxv5CP/SQ5mt58xCWfxOLPfn6mVCQvBFfbjyHeu07IizUD9f2xeKbzZmGTKkBPL5hJb7cmgtPKb9X+/rIil+DLzYZ883cykTMD79ixxWxLGkbGuYidvHGO8vSb6PUSCqJtCPZN+QpU9eyM5AmBR9LojNR/+726Nf8Jvb/bz3WHjXeEyGt329r8GW8Yv0SfsUX609Cp8+X98m67TjWqK20T7xxMS4WK1fHIibbR1rHTrir+nFEL9sJkwshOfuxclMe/KTj0D2gEHtWr8KSZOPlMfX9fH7Xr1j48xHcDGh/Zz9+sfqQVFrd+cQN0n4/DffW0np38kJmbCx25MiZwvXTiP56DeKy66NjT+O+XIONGXK+Od0FHEnLQJZhww30acbPx1XsWbUGMafqSPV1RY+A69J2rUOMXJ9+Xx+9gGuGST19mvF46T9/vyIuU6yPhfn3J0j7LRt+IV3RpYkIig376qTxqsiFNHwvPns35c9i4XH8/N2vSFRuNxGVOwwuXMAvIADDnngST/9rtn4Q4yLNJTzbY8yorujYLhDdh9yH/o3ycPCo4cyctXM3DtXufCe/Y7/BGNr8erHGq0GPwRg3sD3ah/jpe0QOJeyFrvMgTLxfStPXOwxDW2Ri6x+GAOH0mWy4t+uMsJBAKb89hj/yIMJ7eOvzRGMQd9AXQ/822JAvNRpjRrZHjf17seeKoYiJS9k4c9UPve41LKtjv/swbkx3BNeV853SEg+M7Ynuxm1ucwOHjp4zZIn1S62Jno8o1u+xrmhweDcSFPfa+vW+D8NDRX4PDO/hjow8f4wcItaxNcJGdMVdV8/hpDGIE674ov94eZk9B+Bvg5rhzI59ULbrJvv51klsS7iO7o+OwFCxHLEfH+uJgDPJ2KoWDFxPR9wf+Wj7oHQsjOX/2gb1FB1+5/fsRppfTzylON7hnd2wJ9FywGJdDk6eqYng3ob62of2xbjH7kOvJnK2LTWaoNcDQ/BUeNH8/e6SjsVhZaApHavxA9BTOhZtmxT1ThkdStiNS4F98Tf9vpc+i/ePwF/uzkd8QroUJhJRecXgQmNX8vNx9kQ6zhw/bjKcO3ECVy7LX8e15Fnf0H2t54lGUhtfWHhLGi9E5vnLaNA2QB8wGPm3baEob9DQU3lSlxp7qR2ud7sAaQfT5eE0dG51oMvMhmjLmvn7QLcvHks2pGB/Ri50dUVXt+FSTOHZHJyvVx26dOO80nCpUFqmod5ixOWDOpmI/SkOcXtO40we0NjPC+6KKzsOq1sPnopPduPGnsBNsU/k9WsYgGA5FtLzaIF2PpeRcaLoJsLadRSXXKpJlVVTrFAtdyhyDZr74S7FMt0D/eGvy8JZRQBisp+zsnH6Vh0UXlLsp/QbqFnvBjKzVG5mzM1F1q0maHOXYj3cm6HVnYa+UNq/eajndgPHjPVJw6Xb0jLPZSNLLuUYb7Twv4E90RsQnXgEGdk3UNvHBw2UV5iscasJ3+ZeqJGdKa2LFNRt2IKdZwCd8vEWs2NlyvCZadkmEMqrIHcFNQPST5sEbkRUvjC40Iju6lVER32D7z/8AGu+jMTar78wGX7+chG+/78PsH7xd/qyrncVV6SvqzXML5fVcJPvLbDkOsTbyguyTuPYiaIhs5Yf2rdspJ+3XpcheG5MJ/hfP4Nd/9uABf9ZheXJhicWLl+Rtu16AU4o5j124joatA+Ev3lUI1T3w9BJD2N4u3o4fzARP323DP/+fieOK7vqNaRfP2WgoFdHtHFyUOak6mZ11qhu0iAWI61HgXSMMk32Uy7cmgfiLi+VyEpfXmqvTf7H1pGCIHlUPt438zIV9UmDrp70jd+nWEBpnzoIDX8Ef+vtjcKMNKz5aTn+/WUs9th7SeLCISz/ehn+s24vDkuBWx3/INyljHRtMnwWi31g69ZBvVuFUL8wRkTlAYMLDdySGqVfor7W91h0DbsPwyc8hZGTnjUZRJrIO3PsKKK/+0Y/j2vVR1O/mjiflWvSfVxw8oy+98GyBvCWGgD31l0xfEjfomGwNPRtJjdShajt3RphDw3BxGcfw3P3eSEjfj/E8zENvMTdBF7oKsor55X+hvrpZ1ZRB2179kD4Y4/gH88PQafCQ4jfb/j2Xr++1HpKDUkRqZEVDY6TGvh6wf1SLs6b7P4cnDkLeHo61wTr5VzCeXlU79x5nIGHPmhR5dUAvqiFtr0V+0neV/1bKXuSZPryl3BBeSlG+mafeadLoj58RW+MT5ti9Q0f0laaV0W92vDELVxX7t78Apj0m9yuhcYhXTFy9Ai89PwjGOqbiY27T+uzGnp4SPmmFycKLhcFzucPHUSGV088/9QQjBzSAz1DmsHboRsxveDfRKonx/RR24JzOSjwrA8+d0VUfjG40IB4MiT79GkMfHQM7hk8BC1at4H/XXeZDCJN5IkyhqdI9shzu05A12D4pu/Aj7+fRJb0zTfr6E6s3JVv/Ru11Eh16dIMWTsTsf+i3HBckRqUH37Ewq250sRlJC5Zhu93GIOWQhRcypeikVqGegPborv7EcRvzUSBvgEvxKV9cVjwWRz2q3TYFB7bhgVfbkOa8X4MXQEKdEBt+bqIn48XcDwN8ZliadKy0nZjh9rlFXs1b4WO9U9iW7y8flLgkrVjN/ZXb40e7VR6DOx1KRVxyZcN+6QwV9r+I0CbIARbuoTQsB1CA3OREHcEl+TdXHBqJ75dsApxave+NgxCR/88/LHlkFxerPcu7FEEWnd1ao/af+5D3Cl5Rxdexp51y/HvNUfkm1XN1PJCY8/LSP4jHQWizuvSem8/XlT2Ygq+/2w9tmfLK3j7Ki5Kkal7DcNGufl4osHFg9iWdlW/3YWZexGXVtSfUNtd+kTkXcB5efbC7L3YWfSEth3qILhDM/29JHvkz2Jhfjo2/pEN/9D26gETEZULDC40kHX6pP5vizZt9X+tMZY5d/KE/q9LNQrBX8M7o+FZKahY9iuiU+pg8PBgKXywzj24L8Z1vomti5dh/qc/Yv6Xm3GoQQ+M6SMeo62PntK30Hqpv+LfIu9TKdBIrYP+D3WBv5i5ug/CwvvCL30zFi4w5H+ZkI/gh/qio8oXcrdW9+Chtpfwvy9FWbGsHTgf1BdDOxgKu7XrjqFBV7FrmViXFfj+VAD6BemznCOvn/8Jef0WLMOP0voPeqQnAkryvyEoGK2ObzDsk89+xS639ggf1AKWw5Wa6PjAENxzcx++/Myw7Qt/PgnPewcjTLWHpw5CR4Yh+NJuufwyrMwLwWDlvmjSFWOGeOH4z6sM+/KzNYi7fBf+8kBrCwGlF3oPbY/GJ7Zhoajz612oJTXad65cNAzB8HvrIEW/7w3bleLRGeF9fQz5Ph0xvFtDHI1dpd/uiDg39Oiuf95Ir16nXuhf5yiWyNsX8Wsh/By8r1n/WQy9iR3yZ/HfUdLno3UYwruofJiIqNyoNn369NvyuAnx7gc15unWpu3JM/5dl2H99qztEXPkMW2J5Ytr7V/NehNT3nNuGRuW/YhjKSl2z7/ozZloFdIRQx4bJ6e4TmFhIdzcFE3cud1Y+NNlDHp5AGyGQtK3et2169IZvo7qDZbi1dPXbtVCvTrqTaitfBM2luUK+vWDtH4aLlDUebOatA323vQoXL+BgpvSN/26Na0EI0VsL0Pal1ekfVnDwfWwqGT1OfQ5sET/+biFGrWlfcSvRKQhcT5+etZ70nmyutPvdCipOfMX6v8al69cD/N1sjdPMJ82spSuxpGySvxvqoFa7rVRq5b9F5NrSmdoMY+rFWbsxBcLNyAuQ+62zs9EfPwRFLQKgF1f/qu7wb2u5cbeTQoErDUYtvJN2FiWK+jXT+MFijodboBr1UQ9OwMLwfYy5H2pSWAhlKw+hz4Hlug/HwwsiCoK/lfVQL+HRmLMy3+Xp2wb89LfpXlGyFOu4xbQFeH31sPxaEO39b+jNuPPWsEYNyTQ7oaMiIjIUQwuNFCjZk2HfjPEo2Ej/Tyu5wbfjgMw8bnHMf1laXjpMTzzcAj87e9kISIichiDCyIiItIUgwsiIiLSFIMLIiIi0hSDCyIiItIUgwtZdTc3FBbelKeIiKiyE+d8ce4n7TG4kHk18UPmScObNomIqPIT53xx7iftMbiQiBeQtQruhLSdO+UUIiKq7MQ5X5z7nXwJJVlR5YML8WpTMXTs0wcXcjKxd2u8nENERJWVONeLc7449xvbAdIOey4khg9WddwXPgaH9ydj44rlOJN+nPdgEBFVIuKcLs7t4hwvzvXinC/O/QwstFflf7jM6NatW9JwWxoKkZKwHcdS9yP3XCZuFcq/F01ERBWauHlT3GPRKrgjQnr3QfXqbtJQTRrK9nt2ZfzhMgYXCsYA4/Zt8fdWsfUnIqKKTTSWIpgQPRblIbAQGFxIzNOtTduTZ/xbHoILQaxP0SAnEhFRpSDaStFgGofygMGFxDzd2rQ9eca/5SW4MDJfdyIiqhycbTBdpTIGF7yh0wKxQzlw4MCBQ+UbyPUYXBAREZGmGFwQERGRphhcEBERkaYYXBAREZGmGFwQERGRphhcEBERkaYYXBAREZGmGFwQERGRphhcEBERkaYYXBAREZGmGFwQERGRphhcEBERkaYYXBAREZGmGFwQERGRphhcEBERkaYYXBAREZGmGFwQERGRphhcEBERkaYYXBAREZGmGFwQERGRphhcEBERkaYYXBAREZGmGFwQERGRphhcEBERkaYYXBAREZGmGFwQERGRphhcEBERkaYYXKgpyEdGaiJSTuVDd1NOq7R0yNiTiKT0fGk0Byn7cqQUIiIi5zG4ULp5CuvffQqhHXqh97CnMLRfL7Tq/RRmrz2mcYObj8MJidh2VGrQy9q+KPx1cSJ2Rb6MsKGP4/Wd2XCXs4iIiJzB4OKOfGya9TieWeuOiVHrsOfAbhzbF4PlE92xeupETIvOkctp4Sh+HfsUxkQflafLUKfJSPh4KibP+QZxcTFYO6m9nEFEROQctz59+sySx8vUoUuX5DF1kx4cLI+5SOpSTHktGaMif8Sr9/qgXq0aqOHuiYAe96Pj1cV497/1MPTxLvCVi2clrMRnkZGI+DUFBbebolXrRne+8WfERmFZEhDgewJrI77Au2t34aZHO3RsUVfKPYVNkcsRvTUFx93dUT8zG9XaBqN+6kpErc1Bg1YXsO79OfggIxCju/gAeVL5tVH46j+R+HXfFRTUb4r2TUU9MrP8m76BaOOt6HvIO4b1S79C5Ecx2JF3BY0D2sK3jpy1R15m20IkRn2Oud9uwdkazdFWsS24mYOkX9bgq6/+jR+2nEBB9WZoGejJ3g0iIo1s3b5L/7datWomfwXluGBvnmA+bWQpXY0jZZXYcyFLSfgFKT7jMLy/ebPpjr6v/IK0ZWMRop/WISnicYROjUa2VygGNc3H+jdHYOiMWGTp84Hs1HmYvTYSbzy7Eoe9WiHkSiymjw3HhwmWL65cO7kFs+dEYtoLb2FXvVB085HWoyAZEU8OxbRVOQgYOg596+3A3FHheCNWvpyiSzPkxwDdR09AX7cteGPoFESmGrJxKhovDhqBd3cCbfq1AnZGYOjQV7H6lCHbsMylmD1zHrYVNEdrz2NYNHkEXlghF5ACodWvhmPkxzuAe8ZhVOscrJ4xFOO/TpPziYiIiqs2ffr02/K4idu3VZOLpVubtifP+HddRob+ryXbI+bIY66RFNEBIw/OxZ7Ph9/pnVCVvhJPhEWgzeINeNsYiKRGYeiwbzF89e+YGirXtXgClsfNkAICUeAYop4YgTd6/IjTU7tI01LQEPg4PnzFOA1krX1ZCliuY37cQowN1CcBN/NxeKcUKXTqiTb6evKx6c1eeAILkfbeAHjui0LvkSsxYf06TA4W+eLmzGOoHdwevu46bJs7BGNOvIoEaZsCRLYULCydMBRzg7/Bjld74lKxZeqwaVZXPJFt3A86ZKUmIstzAEKa6ytAytePYujKhxCzfoIcbBERUUnMmb9Q/9fYS6DsLTDvObA3TzCfNrKUrsaRskrsuXBQ1oFEbMJDGHSPoocjuCceCc5B9G7FN/p7guWAQPBEA0951KouaGsMLIQaHmjTuwv8ziVjW1w0oiIX4dsYKf1CPq6J/HZd8JfAY1j0j1cxe0Usko7mw6+jCCxE5jEkrchB3yB3nBQ3j+qH00BQK2QdzUGmKKKnXKY7GnjJo3ru8A0egDZIk+aNxdLICET9Im1jqk7jG1yJiKgyYXAh8/HpCUSn4rBaq6nLR16enFEo/nqitsnVEw/4tpC+1Rdo3OSeisX0sK649/lIrN+dDZ1XTwwbLucJ7l3w2toYfPS0D/LWfosXB92LVoNfRpTU+IteCGQDl06lImVf2p0hzzccb3f1MMxvi7gsM1aqc/x7WB13CnnuQRj4gIvvfSEiogqPwYUsoPdwDEQUoqKN9xsYncLqV3qh/dRfIC7c+LYIhi8ScSjdkKuX+ye2xQCjguRrBxpJiVmEpXVnYHHMQrz/ygRMHt0TASZBjcTNBwNHz8D8xT8i4cg6vN8iFm/Eih6U5mghBSJZgQMwebI0r3GYJP4OkC+TWJeX8As+TLgXX676EfNnSvNNGI4Qz3Lw+CwREZVrDC6MAh/Ca692wfpXJuGZSHGJ4RQO74lF5AuT8GJ0F7z2ykOGBjl0AKaEJmJuxEqkZIsejWNYH/EtlvpMwNgwb31VthkafuTmICsv3+IlBl+fZuLuUBxON/REZMVF4sNIQ56gS4hAaIen8GGc4cVXunPHcPhPoJunuAbjjUGjxgIfz5PyTyGvQIe8U1vw4egOGBlp3w2Zno19pEDqKI4cNAQUeakrMffjRP04ERGRJQwu7nBHyPPfIC5iMK4tfRkjBw1F2KiXEVUwGJ/FLMLUTsYug/aY/PU3mJj7BYb26IX2nUbgjYNd8NmyqfLNm/bwxrCnpfLRLyO008tYpewFUfAdNAXv37MXL4Z1RbPArng4OhgTp8qZEvfek7F4ljd+nnAvWgV2QKt+7+LwyLn4aHQrfb7n4BlYPi8Iv84YivYduqJ9v7eQ1FXKH2/nuyxCh+OjSe74dmwvafkdcO+7ORj0Mi+LEBGRdXxaxAKd6FFw94Cn+WUIpYJ85BXWgqfVQtbpdFKQYGt2sRxI62IxeNEhL+863Ot6wL2GnGTCVr4N4p4TXcm2k4iI1PFpkSrE3dNGYCHUk8qUsMG1GVgIYjlWe0XcpfWwFjjYyrdBBFkMLIiIyE4MLoiIiEhTDC6IiIhIUwwuiIiISFMMLoiIiEhTDC6IiIhIUwwuiIiISFMMLoiIiEhTbn369Jklj5epQ5cuyWPqJj1Yum+GNH8BGBERVQ7OvhjKVbZu36X/a1wv5fqZr6u9eYL5tJGldDWOlFXiGzrNiPVJ3hqPYyn7cP7cOdwqLJRziIioIqvu5obGTZqgVUgndOnX3+mGU2uV8Q2dDC4ULp0/j9jlS9HQ2xfte/SAX4sWcHNz9rWWRERUnhQW3kTmyZNI27kTF3OyMHjMWDRo3FjOLTt8/XclduvWLX1g0bpjZwwaPQb+gXcxsCAiqkTEOV2c28U5XpzrxTlfnPtJewwuJKL3ZO/WeH2PRed+/eVUIiKqrMS5XpzzxbnfvJedSo7BhUR8sI4d2K+/FEJERFWDOOeLcz+DC+1V+eBCfKjEIG7eFPdYEBFR1SDO+eLcb2wHSDvsuZCIz5R4KoT3WBARVR3inC/O/YwrtMfggoiIiDTF4IKIiIg0xeCCiIiINMXgwkWuX9fh/Nmz+kGMExERVRUMLjR2q/AWtq+PxjezZ2HF5xH6QYzviPmVL2shIqIqgcGFhsSjTP9bshj7tm+Ft38zhPTspR8aN22K5Pgt2LD0B7kkERFR5cXgQkP7E7Yh4+CfuO+RR/Ho8y+i34iH9cPoF6ai/8iHkZ6WJpXZLpcmIiKqnBhcaOjo/v1o6OODdl27ySlFOtzTC56NvPRvgyMiIqrMGFxoKDfrHBp6e8tTxTX09dW/Dc5phTdQcOUG+CPwpHfrKrKOncaZfOkTkZeJ4zn8ZBBR+cDgQkM3dNdR3cpbPmvUrIHr167JU05IT8DCLxNwVJ6kslFwLr1cNOQF++Kx5lAm9q9dgwXLtuHYFTc5h4iobDG4IHLQ6d3bEHe0QJ4qO/W6DMEzD3TF0McfwUvPPoJBAXIGEVEZc+vTp88sebxMHbp0SR5TN+nBwfKY9sRTHrvjNqH7QMeXkZebi12bYvHn7iRcyMrC9Ws6ZJ7MwNGU/cWGzJMncUOnQ65U7tyJdDT09oF7nTpyTXa4cALbDwHterVEY2kya7/UyGXVQbMbGfgtZge2peagsFFT+HsovsFeycSu+F2I3ZyGIwU10axRAXb+fg51ghqjHnKxZ8NunKvjhYs74/DL5lw0DG2GRubzXbiJ+n4+aFBTX6OkEJeOpmLjxkRs3H8WeTfqwM+vPmpVk7NFfloyNsTtwvbUTFyq3hgtfGpZjmSv5GJ/YiJiYvfjwOkC1PD1hU9tQ2nDNtZHW7+i/STSdhf4oGWjOytkqvAy0rbvwG9x+7D/pBQENGgIv/qKsub5jbzhV0/eZ1dOI37zcdxqXB/ndm3Hr7HyfmveELWrXcXxbX/gj4yLuJRXgJyzl1CzaRM0umGYR+dZDcd/j8ealNto274xakvLObRzL+K2JiIxLbv4frCy3XpWjoE9x74g8wi2S8dg89ZDOFbsGBKRsGvTRnQNG4jq1auhWrU7J7FStXX7Lv1f4/KV62G+TvbmCebTRpbS1ThSVok9FyVw61Yhfon6Wv8EyDEpeBAK8i7px9WGAjmAEuNiHjGvqMNZF0+mIy0hHst3XkVAp47o2CAHcSv+h8QLcgHdSaz9IRY7L3kitG97tMURrFq3Dylp53BRX6AAJ9PSsfWXzdiDFuh1TwA8RfKFFHz/9WbsL/RDD2m+ljcPYfk3sdiTr58JBckb8eXGc6jXviPCQv1wbV8svtmcaciUAovjG1biy6258JTye7Wvj6z4NfhikzHfzK1MxPzwK3ZcEcuStqFhLmIXb7yzLP02igBAQaQdyb4hT5m5fhox36xBbGZ9dOxpqG/r8nVYe1Qur5a/bHVRvu4CjqQdxC+rNiOjXiB63OOHwtRt+P5/J6UtqwXPZs3gVxeo4emHVi294SmugsnzxPz8B840boOwkEaocSsPiT+twdo/r6NlaNc7++Gn5KuG5djYblvHwNax1x3dgm+W7UZWw1boZZz/h0Rk8FUrRFQK2HMhcbbn4sTBP3FA+uY5YOTDePCJCfr57R3q1q+PQ8nJ8JEaK9GDYReznovzh/fjIDphwuhOaO7dEP5B/nA7JKXVaIXO/rWQtSMOm/LbY/xjnREo5fsFtILfhVTsPldHriMPBxNPAH2GY3yfpvDxrQ+p3cShzb/haMD9mDSwJXz09QbB4+wf2JLth56t6iN99w6kN+2Lv97TTMr3Qdug5mjh7wUPdylWler/eXM1DHhqIHr6N5TqbIoOzW4iedNxVO8UhKbm35wvpiM+Cbjn0Z7o4CfWsSVaBzZGswZ1UEOqzrCNLdGnTQN5BkPaybrtENrcXU4pcn7X74i52AZ/+2soAn0M29zK8wouFTZACx93XFDJD66VgZjEArQObYp617KQvDcbgQ8+gqHt5fVveBHxf+SjWc+W8G/YEDcz9uOsd3fc39kHdUVHgXGeYY9geIgXfBrXQ63bNeDh2wSd72mP1tJ2iXqa3DiO+OO10LlDY9Sysd22joGtY1+tnoeU1gF9gv0M899VGznbUnGhWQe0LtqVRFUeey6sc6SsEnsuSuDWTUOvQ+269fR/HWGcx1iH0zzro2jpnqKHH4WF4utpITLPX0aDtgH6QMTIv20LRXmDhp7KSzPZOHMOqHe7AGkHpW/H+uE0dG51oMvMhggBm/n7QLcvHks2pGB/Ri50db3g72noji88m4Pz9apDl26cVxouFUrLNNRbTAMf+NfJROxPcYjbcxpn8oDGfl5wV1zZsV+htIw8aZvvQmPFJ7tx+x4Ia+8JNwv59e5qAV/xtIWhO0dSBw2VDbCXFxrfKoSFvhKZ2TzV3dCgiTfqX8nG8YNHkLhpGzYevAxcvQ79Lb1Wt9v2MdCzeOylbw3uXgjwqoGsDGnePbsRvT4NJ6Qt0FnfCCIiTTC4qLSu4koBUMM86KzhBsvPswjXUSDNV5B1GsdOFA2ZtfzQvmUj/bziRsLnxnSC//Uz2PW/DVjwn1VYniy1jpLLV65KVRTghGLeYyeuo0H7QPirxWDV/TB00sMY3q4ezh9MxE/fLcO/v9+J4079HIuFbb7DQn7d2lIjfRO4LU9r4Xom4r5fgQVLd2D3iUxcbdQMbZrWlzMlVrfb9jGw5fz+WCyMXImViRk4dqEWAoL94SfnERG5GoOLSqs+mvrVxPmsXOn7epGCk2eKvvmqagDvxoB7664YPqRv0TBYGvo2k78pF6K2d2uEPTQEE599DM/d54WM+P04Lub2EndteKGrKK+cV/obarF1q4O2PXsg/LFH8I/nh6BT4SHE75e+5Uvq168DmNyXclXf8KqTt/m82RZeuYxL18WIhfxz53Gmugc81YIfZ508iF03gzBu8giES9seFhqIAP0NLUqWttueY2BNHo7syUTj+8Lx3OgBGD4wBB0DG6C2nEtE5GoMLiqxgK7B8E3fgR9/P4msK1eRdXQnVu7KR/E7FZTqo0uXZsjamYj9F+VG/UomNv7wIxZuzZUmLiNxyTJ8v8MYtBSi4FK+1BLWMtQb2Bbd3Y8gfmsmCvQ99IW4tC8OCz6Lw375XkalwmPbsODLbUi7IifoClAgfXuvLV8X8fPxAo6nIT5TLE1aVtpu7LDyHrKADq3R4HAyNp6SF3Y9F/E/r8H38YYbSlXztx4BgtujfS1Dkj2uXbPRtVLTHe5SFHTe+FqTK+nYts8QMAnWt9vWMbClJmpJMdml8xfvHKOsP9JwSD9OROR6DC4qs0Yh+Gt4ZzQ8KwUVy35FdEodDB4eLDVd1rkH98W4zjexdfEyzP/0R8z/cjMONeiBMX2khl6au+eQHqiX+iv+LfI+lQKN1Dro/1AX+IuZq/sgLLwv/NI3Y+ECQ/6XCfkIfqgvOqo8devW6h481PYS/velKCuWtQPng/piaAdDYbd23TE06Cp2LRPrsgLfnwpAvyB9lromXTHmAV9k/LzKUN/CX5FSpwfG3Sd3mxTL34CUeop8O7S9pzPq7d8gzb8G8TlyormArhjaLhcxxu368QjqNS/qurC13daPgS11EHpfZ7hL62g4RisQfd0Ld8m5RESuVm369OmqV5rFExRqzNOtTduTZ/y7LiND/9eS7RFz5DFtieWLm+C+mvUmprzn2DLEI6Ubli3BkMfGoVVIRznVPiWZ1xGFhYVwc1PcHXluNxb+dBmDXh6AtnKSRbcKobt2XWrp6qjeYFmou4prt2qhXh2VTImtfBM2luU4qb4r1uqzla+R6zdQcFPcwFsTqouxtd0l2i/yNtaQ5nWgV4aoKln05kw8Pes96TxZ3eknI0pqzvyF+r/G5SvXw3yd7M0TzKeNLKWrcaSsEnsuSsCjkeFbZOrOP/SPMzkyiHkEYx2uUJixE19I38zjMq7qu8cL8zMRH38EBa0CYO3L/x3V3eBe13Kj5iY1eNYCB1v5Jmwsy3G26tN6eRbUqol6lgILwdZ2l2i/yPMysCCiUsaeC2n5zvZcCH/8tgG7f98sTzmm67334Z77h8hTrlCof5Nj9NaTOC99gdU/HhkQguEPhMDf+o0XRERVAnsurHOkrBKDC2n5JQkuhCuXL+Oa5UcYVNWuV0//Ii0iIio7DC6sc6SsEi+LaEAECV5+fg4NDCyIiKiyYnBBREREmmJwQURERJpicEFERESaYnAhq+7mhsLCm/IUERFVduKcL879pD0GFzKvJn7IPHlSniIiospOnPPFuZ+0x+BCIp60aRXcCWk7d8opRERU2Ylzvjj3O/m0JVlR5YML8QyvGDr26YMLOZnYuzVeziEiospKnOvFOV+c+43tAGmHPRcSwwerOu4LH4PD+5OxccVynEk/znswiIgqEXFOF+d2cY4X53pxzhfnfgYW2qvyb+g0unXrljTcloZCpCRsx7HU/cg9l4lbhfJPXhMRUYUmbt4U91i0Cu6IkN59UL26mzRUk4ay/Z7N139LrAUMgnLanjzj37IOLgRjgHH7tvh7q9j6ExFRxSYaSxFMiB6L8hBYCAwuJObp1qbtyTP+LQ/BhSDWp2iQE4mIqFIQbaVoMI1DecDgQmKebm3anjzj3/ISXBiZrzsREVUOzjaYrsIfLqtCxA7lwIEDBw6VbyDXY3BBREREmmJwQURERJpicEFERESaYnBBREREmmJwQURERJpicEFERESaYnBBREREmmJwQURERJpicEFERESaYnBBREREmmJwQURERJpicEFERESaYnBBREREmmJwQURERJpicEFERESaYnBBREREmmJwQURERJpicEFERESaYnBBREREmmJwQURERJqqNn369NvyuInbt1WTi6Vbm7Ynz/h3XUaG/q8l2yPmyGOu9+PGLdi4ex+OnDmHm4WFcioREVVkNdzc0Nq/CQZ17YTHBw2QU8venPkL9X+rVatm8ldQjgv25gnm00aW0tU4UlaJPRcKp3Ny8dS8z/D5ml/x58nTDCyIiCoRcU4X53ZxjhfnenHOJ9dgcKHw1rdL9B88IiKq3MS5XpzzyTUYXMjEpRAGFkREVYc454tzP2mPwYVM3GNBRERVC8/9rsHgQiZu3iQioqqF537XYHAh482bRERVD8/9rsHggoiIiDTF4IKIiIg0xeCCiIiINMXggoiIiDTF4IKIiIg0xeCCiIiINMXggoiIiDTF4IJIaz4+CLsnCENCPOQEW2ojfPzTWDL9EYz1kZOs8emAWS+/hKiJPeAvJ5V3vR8ej6h/TsC0EDlB6YEJWDfvX/jvxHZyAhFVdAwuiLTWYThel4KFWQ/3lxNsCUJYcBACA+5Gn2A5yZrgUPQJ8kfbNu3QW04q78Lad0Bb/3boViy48MGsHu3Q+MZRrPz2oJxGRBUdgwuiMncALy1agFnffok5v8tJ1vz+A1784iu8/u1/sVJOKu/mfP0xXv9B2sZlcsIdXjh7fAe+W/MDlsopRFTxufXp02eWPF6mDl26JI+pm/TgYHnMNb7+daM8RlRCgV3wRHtv1CrIwNfxh4F7huGLJx7AiOaXUKvLKLz72F/wdP8gBN0+jLgT1/WzPDl6Ah7t5IfbW1OwV5/igfDxf8Nbj47AS/d3Q1iwB9yOH0XaFZHXC9OeCsMg31tYufuUvrR/t16YOWYM/v7Ig5jYLwT9m+twcF8mzovMO8u/jcB+j+G9v/ZDl+vbseGEftY7/Lvdh1mPP4KXHhZ1tMM9TW7gaIpchxDSCx+MFcsYgnE926CjxyWkHb6AfDnb2vxDRo7BpNAgNL6ejK3yjw8byg9AWFBLBPlL9dU7j41H5POAHfuMSCuubl9s2bp9l/5vtWrVTP4KynHB3jzBfNrIUroaR8oqseeCyNXq+iLQ3x9tO4XjpW4B8HavifpeQRgSPgUf9TQU8ffzl8r4yPdQtMTMN2Zg2j1BCKznBtRsiLZt7sO0f0yQ78nw0tcX6OelL42QYZg/7mGpkW4I5GUjr5Y/Qu55DF+80t9Qn3H53YZhbLAPaok08/NFyMOIGD8EvZt56OvIqeGPbn0ew0fPyvdBSMtYMlEswwfuV6VwomEQwh54GpFPG/Otz9/Yp6W0Di3hX1c/Cf9BExD1pFQ+QKyPGzy8pfqGTcKSx1saCtixz4io/GJwQVRKarmdQeQHbyNs2jv4Lv2alOKFllJjX8wjD2KEX00gewemTZPKz/gACw5L5d39cV8vuYxCSL187E85iLjfPsCI9xfg0dfXI0UnLa9pO4yQywi1bp1G5PyZUn3zMC1OTjTqHAB/KY65fOxnfR3j3lyJdak7sf2sVL+U/dLwXgiseQ1Ja97BkFkfY8TcVUi6KgUNHe7DS3bMbyoI0+5rh/ow1Bc2Q9rGr3fgTGFNBHZ/ENMUu8TufUZE5QqDC6JScvnUASzNFmPXEJmZq0/zrF/8eY+xzfz0f9OPrUGCfuwali54B32mfYBn1+kTTKQkxmPOxg04WGsoPnhpCpa80R9t3aUM9zpSU1zk8qm9+C5DnjB3JFt/+aJ+m3Cse2MKFkz0wpmtv2HOuoNIQWe09ZKCnUKgaY9nsOSfL2HJpF5oKuZz80PbMFvzm2uHpp7Sn6snsH2jCBgkKWuQlCn9leoL7GBIEuzdZ0RUvjC4ICo1rrlXQFxi2DD9JUy+txf6NPcAdLnI0cmZJqwsP3EZpq3cgZTca/DwaoluoUMw+dnXse555eOuN+S/BtcvnEH6mRM4I+4DsWt+63Kvi/rd4C5fOjHg/RVEFRGDC6Jy5tBl/V2b8PAoeu+D/4jHEPXSI5iscr/Bkz0MlxhS1r+DsNfmYdz8JJy9JWfay8cH/leP4L/LPkDYtJl49DtxmQJo3KYbwnEG+VelMm43cOjnBRj3f4Zh1i9r8dHXUZjzh635zeXjsgh+atWG/50rHO0MvSNSXn6OIYWIKi4GF0TlTFLCAaRLX+IbB4cjanx/TA4fj4iwzmjbJght5TJKxm/8Xs07Ysg9HTDtpTB0q2PIs1e3YU/gg/Hj8Xr4w3jyniDc36YpPN2kjIKLOIhsrPzzDK7DC33GPY2Z9wfhyceexkcTp2DBP6fo77mwPr+5eGw+ni+tckuMmDIe00b0x6zp4ejtCVw/cwBLRLBCRBUagwui8ubP9Zi+fi/O6DzQ9p5hePLeDvCvno9Dvy/HtES5jELkhq04dLUm/Ds9gllSAz+i4QVpWs60U9J3K7EyIx+1/Hph8vinMblPS9S/fAIrV/+MDSJ/2ZeITMkGPIIwYoTID0LjW9lIWB+FBXbMb27pf340lPfpgPD7h2FIgAeu5+5F5NfrkSSXIaKKq9r06dNvy+Mmbt9WTS6Wbm3anjzj33UZlu40M9geMUcec40+U2fKY0TlR9uQIATWzEPKnmyckdMsEWX9dacRJ54scZZ4dfldnsAFS/V4oPc9vnC3lG9zfjNyed25o0iwfgogchlXty+2zJm/UP/X+E4J5bslzN8zYW+eYD5tZCldjSNlldhzQVSOHUo5ig12BBaCKFuiwELIzkbcH9bqyUeCtXyb85uRyzOwIKpcGFwQERGRphhcEBERkaYYXBAREZGmGFwQERGRphhcEBERkaYYXBAREZGmGFwQERGRphhcyGq4iXcVExFRVcJzv2swuJC19m8ijxERUVXBc79rMLiQDeraSR4jIqKqgud+12BwIXt80ADc3aKZPEVERJWdOOeLcz9pj8GFwrsTxzHAICKqAsS5XpzzyTUYXCg08/bCNzNexAsPP6j/4PFGHyKiykOc08W5XZzjxblenPPJNfiT60RERGWIP7lOREREZAODCyIiItIUgwsiIiLSFIMLIiIi0hSDCyIiItIUgwsiIiLSFIMLIiIi0hSDCyIiItIUgwsiIiLSFIMLIiIi0hSDCyIiItIUgwsiIiLSFIMLIiIi0hSDCyIiItIUgwsiIiLSFIMLIiIi0hSDCyIiItIUgwsiIiLSFIMLIiIi0hSDCyIiItKUxeCiWrVq8ph11sqZ59lbJxERUVXnSBtqb/vqSDl7y6phzwURERFpisEFERERaYrBBREREWmKwQURERFpisEFERERaYrBBREREWmKwQURERFpisEFERERaYrBBREREWmKwQVVXbprOJN+EIcyr+F6oZymJOVf1snjtlw8iLikbFyXJ1WJ+m7I40qFZ5CwcgMSMtUyqcQKpeN8+CjS86Txi2dwKNvB/Vx4A5dPH0XK6Vz1zwkRFcPggqqewnwk/TgPI2a8g8lfrMX8+e8g7NV5WJCYLRcwSFnzDoasOSpPWZe+fSVeX7Id6fK0GlHfB9tz5akil5M24KPLzdDNr6acUjlcPi0Fbo425C5wOWkZPtojBXDfzsOz85dhf4ED+zl7B+b8821MWLgKkV8uQPg/v0Kc6ceEiFQwuKAq5hpSVi7ArMNBeH3WHKz7YAa+mDcHG57pgPTlC/DRH/lyOccEDnsd2+c+jLbytP1uQOfbHxFjOqCWnFJZpG+LQlSqc/tTS/XvmYCPxvTH2JelY/3eKwgPlDNsuoaElWtwsMsELHlvBhbM+hcih9/E64t34LxcgojUufXp02eWPF6mDl26JI+pm/TgYHmMyD7Xj27AJ+suI7BjE3gYw+jMBHz442WMe+0JhHnJaZJa3m3Qt9EJfPTzeXQPa4PGUvmsAxuxDl0xqYMH0rf/gl/PNkbHZvXkOSS6E9iw5g9cbBIEz1PxWLn3Ju5q5XUnSDifshmLf/4Fq5LOw82nBeqe+h376/fFoMA6hgKFuUjauAE/b96NlLNXUM2nKVrUr2HIU3M5Gwm/r8MPSzbjD6m8u/9d8JerOvPHGvxy2nT9RFrclUC0a2yhTv3yf8XS1bFIyJCW7yUt30NR1jxfuX6Xj2LdugO44e+Bk/Fr8N2SHUi+Xg8dAr1Rq7oUwG2MRsy+UziaewNXT+egWkBL+F6X52lcE6m//ISPdhaiZ2gz1JWWkxIfj5/WrcKavZm44u6Hdr7yhglWtlvv8hnExURj6XJpHfIK4desGRrKB8GwXzxxV+GfWPnTKiyVj0VgA8V26uuPwfLVv+D3wwUo9Gom519FYe0ghN3TDo3dDUU9rp3G13EFGDr0bjQ2JBGV2Nbtu/R/jT8UZv7XyNq0eZ5gb5oae8tZwp4LqrTOHNyFlfv248RVOUFyJi0ZCd36mwQWRvU798CQywdwMFNOuKMm/OtfxZKfd+KQ4pr75b2bMetwHTSV6tKdOYAFe7NhvEXjzO+LMOG7FHh2HoLwPj44sfwH/PeUnCnojmLpu58g8oQP+jwwBH18TmPJ3I/x3Z/X5AJmCk9g6dwF+G9eEIaMMpSPfD8KCeI+Aklu+g4s0N9UUESkJZy5Ik+ZUVv+R4rl21q/66JB3oSIz5fjkGcohgxrh+vxUXhx5VFchxuaBtyNwEZSY+zXAm3b+aOpuBIhzzN/4UqcaNoDE3oGwl0KLDZ89glm7riKjveNRHg3Hxxa/klRD5KN7UbuDsz61yJsuCHy+6Pj9R146Z0fTPfLLz9i/sZrCOwzBEMaH8VH86OwwXh16upRfCdt17f67RyJIXdfxbpPP8ZS/fUtDwSGtEOgp76ktC75SEhMRuPQ1rC784OoimJwQZWW4VLFePSuLydIcrPOAHVqq1+CcG+Kds1ykWvaRuvV6tAb47ATSXduqsjHrl0H0bvH3fCXU+7QHcC6tZl4dNIUjO3ZDt1CeuDJF3qj8Wk5X3J+x29Y4Hk/Zk3sj95SA9Z70HjMGeOLSCmAkdawuEtnsf9iWzw6rIdUnyj/V8yZNhzdFB0pjlBb/qwnu8PruiEYsXf97ntM3kYpYJs2rhfOJ6YgXQrGGrdph3beUvPcNEha36A73/yFoU+8hCfv7YxuwT6oLzXgfR6dgqi/P4wwaTminrEDfbBy9zFcFoVtbHdK7Hrk3/8SPnjEkB8W/gxmhRxC5OYThgJCkzBMl7cjLPxxvBR4AtuNl2tqBeD+p17Cx08b8rv1fBgTu+YjZq9ifuHiAUS+Ow8fZffGR+GV7xIWkdYYXFDldWYvlsYdNTRSdimEztLjHm4tpYYHWJJwwPBESN6fSPgzCCN6+OizTZzPQsqNjujWRnHjYJ0gdG8jj+MG0tNPIKxrB/i7yUmS+u1CMOTMARy6KCcoNWiKjg0P4KPPl2FdouHJh8b+PqilmN9+6stv3GkIRnQSXTr2rp8fGjeSRwVfP3S8AetPzJjP41YT9Zv5w6PgDFJS9mLDujVYKW6svXLV0AtkdbuzcfzgDXgjF0kpB+XhBPLdPXAo/WzRfRHeXlIQY+QF/+bSOhbKN5pKy/dvIR3DzBPSvDuxbuUqrDsIHNLdNOTr3UDSLz8hoc3jiPrHELRVXpIhIlUMLqjSOpO2EQtSii5VCE39WwI5ueoBx2XxmKIXvIzd4Gba9hqItnv2Y79U4fk9SVjXrTf6qJUtyJO+vUutn0nDXxseHvIoriFfNNDmlzTreOiv41+/ZZg0IQU3Y/81A7N6eCH9j1V4/Z238ej8DTikuORjPwvLv8OJ9XOW7gRWzn8b4fPXYvPBdOh870b31oqAzep25yFXWs+cjD9x6GDRcLZmW7wU4gNFZ4lluXux4N13MeGrzdh18ALcAzsjJEDOuyNfihdvoHdoO9Q3OaZEZAmDC6qEriH99x8wZ/01TB7axeTGu8bBXRD2529Yp/LM6JmtG7HSvxe6FbvOIfPrgKHN9mJ7ajaSks7gydC26t3jPn7ohrM4Y/LUqfQt+5g8Cg/4B9bG/swL8rTsrPTtuWZDNLZ4qcMLIfcOwUsvzcCSuS9h7M3NWJJk6N738vSSvmArv21LAULxp15lFpZ/OV9+D4ez6+eE48n46Go/qYGfgpfCH8aInu3Qstidkpa22xctpUDAu/NAjJXmvTP8RRoGBSl6Kyw7vz8BS5uHY8kbEzA5fAiGdAvCXcV6Jrww5JU5mBwsTxKRTWUeXJT0jlQic2d+j8JLG4HwV1/Hk3fXllNlXr3wYrgXlny+AEtTsg0vRdJlI2X9V5gqgpHwXsXvobjDC336BmFDYjSScnrhvg4W3pfQUApCgs9gybq9OC/fAHombg2+u3M5AWjbYwDabv0NKzPkGyRvZGPDmh2oNaA3uql95T68BhPeWoUkY5fL1Xzk5NWERx3DOnj7t0Dj3Zux4Yyhu/9ySgyWHNaPqlJd/tfz8Mp6w70GDq+fBfkF8vyW1K6JthdzcdbYA3P5IH7bpLirw+p2e6DPgM7YHh2NBGMgdfkMVn46E9N+s+9lFO51pM9HTibOGG/UzYzHf3fL40aFuUj4Lgorj9rYFqISqGxtIXsuqJI5gd9jTmDIqL8izE9OMuN/7wQseMgHu777GGH/mIk+Mz7GrD318ez0V/Ck8j4JFfW79MaQ1IM42L0D2lrsIvdA7ycnYUT2SowQ9U99G3PO34dpPeVswf8+vDMlAEkL3pHypTLTFiCmYThmPdRSLmCmzVC83u805rwu6pOG13/Eie6PY3IXQ/BUq8NwzOpxBV/839v65f3rUAjGKZdnTmX56zwVy3d0/VSE3Pcw/DcvkOZfgA2W2vrAgZje5yQ+kLdrxPydqB+iWIat7Q79CxYMuokl7xvzF2F748cwbaDKvTAq6ncbiQ88t2Kc/jjNxKOLb6JdJznT6OpJbN93EDEHLXYFEZGZatOnT78tjxdz+3bxLFtp5vmWps3nWZeRIU+p2x4xRx4jsuYElkoNTM7o2Xgp1BAoXE78CkPi2uG/r/Uv1itx/eo1XK9RG/WtxxTOE6/8rm69/uuXpW/E4gkWe67ni1dRXy1ELXvL28HW8h1aP2fdEK9ad0N9SzvK1naXdL+I43RLWr7cE0RUmubMX2jSc2EcN+/NsDZtnifYm6bG3nKWsOeCKpmWGDKsJTYsWYSliQeR8Psq/Gt5BsLv66J6uUM0Ri4LLAR32/XXqu9AgyiernCkvB1sLd+h9XNWTWk/WdtRtra7pPtFHCcGFkSaYXBBlU7jflMQNakHap36E+k5jfDotNcx7Z47j2oQEZGLMbigSqnx3b0Qrn964D709je7qZOIiFxK8+CipNdpiIiIyLry3taWWc8FgxAiIiJTlaVt5GURIiIi0hSDCyIiItIUgwsiIiLSFIMLIiIi0pTDwUVJbzbhjZxERETWVfS2tlz0XDDgICKiqqoytoG8LEJERESa0iS4YM8DERFR2SiPbTB7LoiIiEhTLgku2JNBRETkGhWhjWXPBREREWnKqeDCkajJWln2cBARERlo1V6Wh7aVPRdERESkKQYXREREpKkyCS54OYSIiEhdZWgj2XNBREREmrIaXGh1A4mzeURERFVBabShpdnesueCiIiINOWy4II9EkRERNpyddsq6tdiGWXWc8Hgg4iIyFRlaRudDi603AEMNIiIqKqqjO1pqfVcMIAgIiJyTEVtO20GFyXZMAYURERE2qhI7bGmPRcMJoiIiEpHeW5zy+yGTkG5Y9yql+mqEBERlbpbt27JY5XrC3qJWnRHd4S18n6NGshjREREVcPFS3nyWHFatrGlza7gwpUrbKy7lbe3/i8REVFVcSLjjP5vabSzpUnzaxHmG2HvRvnWrCmPERERVQ0pqYfkMeucbVvLSqnf6GBphxRevoJ+7drIU0RERJXbnr2pOHM2U54yVRbBg5bLLHFwocXKGOtorLuBToEB+nEiIqLK6viJU9iwMV4/rmU7Wl64pOfCfCMd2ei7pFViDwYREVVWosdi+cpoecq2krSpZaXUL4sIajtGmSZ6MB4JCdYHGf6NG/ExVSIiqrDE46a5Fy7qg4rFS3++02Mh2GoPK6pq06dPvy2P23T7tnpRtXTzNFvTgjLN0XFBy3nUqOXbmkfJkbJERORYQ+tMQ63MNy9rKU/LecznF8zTbE0LammCpXQ1jpS1RZMuAXs21J6VVpaxZ9ycvfPbm2dOLd+YphwsUSurNhARVXZq5z61wRJbZdXSlMzzzcet5Rkpx82VdH4j8zJq89hTT2mrNmPGDP3XaXu/VVsqZ8+3elvTgjLN0XEje8s6Uo8aW/lG9pYjIiJ19jagtsrZapzN8y3lOVKPs3UItqYFtTTBUro5e8s5QrObGezZYEc3QFnennEja2XtzRPU0pSM+cpBjVo5tYGIqKpROxeqDWrsLSeo5ZunmY9byzNnT1m1+awxL682v6N1lhbNei4EtTzzNFvTgjLNWnl7ywn21mNkb5o1jpYnIiLrStpAC7bSzPMdmba3HvM8wVp5wZ55lKzlKdlbzhGl/hiGPRuhLOPszhHT1uoxz1PLt5Rmnm6Jsry1gYioqlM7N6oN9rBU3p40tXwj87KC+bQl5vXYYm+95ZXDPReCpbL2fts3T3O0jKVxoSR1GamlCZbSBWt5RETkOtYaYkt5aunKNPN8W+UFS/OXtC4je9MES+lqHClrrzs9F1pU7siGKzk6nzLPvJw9dZnPr5ZvniZYSheMecqBiIi0Ze+51lKeWrp5mlq+OWtl1Mob2VOXGmfns0WLOtQ4dVnE0ZUxL2/v/Mpy1uqwp35bZcS0pTRr6eZ5SublzAciIjKldq5UDpZYK2crXcnWtGCtjCN5llirwx6OlneFO5dFBEe69h29RGBPmjNllNP21CfYU87SvIK1PCV7yxERkX2cbaCV1PLM0yzNb62crTrU6nSmjKCWZmQtz5wjZR1h0nPhqoUIztZtPp+1euwtq1bOUpp5umAp3ZyyDnvnISIiA2fOoZbKWarDUpoae8sJjpS1xtn57OHSupU9F4Ij37Yd/XZvT5qlOm2VU07bW6dgKc/RdHP2liMiIsfY2yhaKudoumCep5y2lidYqteecvamGVnLM+dIWUeV6qOo9myIpTLm6damxbi1aSVLebbSLeUbmZdTG4iIyJTaudJ8sMRWOUfTBfM8tWklW9NGltKV7ClTXhXruRAc+dZtraxaXknSBPN0R6cFS3ULzuYp2VuOiIicY2/Da62co3nmaY5OG9lTt2BvmpG1PHOOlHWGS3sutNhZ5szL2jNtq4ySsbxaGWWeWr6ReTnzgYiIrFM7dyoHS2yVs5ZnZJ6nVt7RaWvUytqbVl6p9lwIjnz7dubbvlq6eZoj9dpTn2Bvmhp7ywmOlCUiIvuVtOFWU5IG3jzN2jLtKWtpfkfqtcaRss4q1XsubDHfYEd2pFpZR9LU0s0Zyzla1nwgIiLr1M6dxsEWZ8qaczZNrYyRI2UrOk16LgRr5S3lqaXbm2ZUkjos1WttedY4Ox8RETnH2Qba0nxq6SVJMyppHY7WbY2j5Z1hsedCy4U7srPsTTNypA7zdLU0wZhuKd8S8/nUBiIiso/aOdR8sJet+dTSrZU1p5ZmVNI6rNXtKC3rssZiz4Xg6DdxW+Ud6SmwN03JkXkcTVeypwwREZUdexpRRxtztXRby7F3HkeWqWQr35yj5Z1VLu65sHdHO7OTRZoz6Wp5RsoytsoSEZFrOXJOtlbGmXRr7J3HVj0VkdXgwtENdmZHW2PpIFirx1K+rXRbeWr5SuZl1QYiInKM2rnUfLDGVll78sxZSjeyNp8jbJXXuj4tad5z4ezO0CrdyNp8zuQJxnxb5Swxn9+VAxGRq6idc1w1OMre+a3l28qzxtH5tF5OeWH1ngsjZ+4xsDWPM/c8qOXZu26O1mvO3uVYo0UdRERViRaNqD11WCtj7zqolXOmXlvLs3d9lJyZpyTs6rlwxUo5s1PV8kSaPetnrZw9dRjL2FPWEvM6XDkQEbmK2jnHVYMzHKnDWhl75hcslbM2r6U8e5bnKFfUaYtdPReCM9+6bc3jbL61+exdT3vK2VuXmpLMS0RElpWksbRnXnvrt1bOUp6tukuar8aZeUrK7nsuXLFBzuZbm8/e9RTljIMlyjLWyqkxn9eegYioqlE7F9oaHGHvvPaUUbJVlxpbdZc0X40z82jB7p4LI0e/kWvRQ2At39k8NY6WF5yZh4iItFcaja+18s7mCfash5br6mouf8+F2Dh7dqq1MrbyLOXbqtecsbxysEVtHmsDERHZR+0cam2wxZl5jKyVt1WXrTxr+YI9Zcobh3suBFd+w7dVzlq+PctwZt3NaVEHERG5jhaNsT11WCtja35719GZbXFmHi051XPh7IbaM5+tMtbyjcsoaRlblHVYG4iISFtq51q1wVn21GFvGWts5Qu2lmGJM/NozenLIs6uvL071BqRr2UZW+Wcpay/tAciIldRO+eU1uAK9tavZRlb7Cmjxtn5tObUZREjZy8PODKfVpc6HF1XZ7eNiIjKN0cbYK2CAUeW62yQ4Ox8WivRDZ0l2Xh757WnnD31GcvYU5+gLO/IfEREVH44ey63t7y9ddpTRrC3PjXOzucKJX5apDQ2xpGDYg9Rzjg4QjmfM/MTEZHrlPQc7eh8WpcridJYhiM0eRTV2Y0S8zlycOwpryxnq6xgXt6eeZTU5i8PAxGRq6idc8rD4Ahn5nekvL3ljBwpa87Z+VypRPdcmCvJfQquvieiNNeNiIjKl5I0wI7O6+rySuUxsBA06bkwKukOcmR+Z8s7Mo+Rcl5LAxERlQ21c7L54Chn5nV1eXMlmdfVNA0uhJJurKPzO3NwjPM4Op81yjptDUREZJ3audPSoBVn63R2npIo6fyupullEaWSXkpwdv6yWi4REVUsZdXAV/bAQtC858JIi53nTB3G+bSaXzkQEVHFonYuNw6O0mr+kijp/KXFZcGFoMVOKOnBKOn8Ssa6rA1ERFQ61M7B5oMWSlqXVuui1faUBpcGF4JWO6OkB8c4f0nrscV8OWU1EBG5ito5pywGV9FqOSWdX0mrekqLy+65MKf1vQzlvT4iIqoYtG64y3t9pcHlPRdGYudouYNcVZ9yICKiysWV5/ryXl9pKrXgwkjrHWXc+a44AMq6LQ1ERFQ+qJ2jzQetuapuV6xraSr14EJw1U5zxQG2xbhMtYGIiLSldq41DqXJlcss7W1xhVK758KS0rjXgfdTEBFRSZRGg18ZggqjMum5UCqtA1aZDhoREZWO0mo/KlcbBfw/YN2KnQo15gwAAAAASUVORK5CYII=;" vertex="1" parent="1">
          <mxGeometry x="10" y="60" width="337.73" height="315" as="geometry" />
        </mxCell>
        <mxCell id="X1Yw7-wLJlJX0ygBhxK6-2" value="&lt;font size=&quot;3&quot;&gt;Login&lt;/font&gt;" style="rounded=0;whiteSpace=wrap;html=1;fillColor=#d5e8d4;strokeColor=#82b366;" vertex="1" parent="1">
          <mxGeometry x="70" y="10" width="190" height="40" as="geometry" />
        </mxCell>
      </root>
    </mxGraphModel>
  </diagram>
</mxfile>
